<?xml version="1.0" standalone="no"?>
<!DOCTYPE svg PUBLIC "-//W3C//DTD SVG 20010904//EN"
 "http://www.w3.org/TR/2001/REC-SVG-20010904/DTD/svg10.dtd">
<svg version="1.0" xmlns="http://www.w3.org/2000/svg"
 width="500.000000pt" height="500.000000pt" viewBox="0 0 500.000000 500.000000"
 preserveAspectRatio="xMidYMid meet">
<metadata>
Created by potrace 1.14, written by Peter Selinger 2001-2017
</metadata>
<g transform="translate(0.000000,500.000000) scale(0.100000,-0.100000)"
fill="#000000" stroke="none">
<path d="M2160 4723 c-330 -35 -624 -150 -874 -342 -60 -46 -228 -208 -281
-270 -87 -104 -193 -289 -253 -442 -109 -273 -136 -597 -77 -899 2 -14 7 -38
11 -55 3 -16 19 -73 36 -125 29 -92 33 -106 43 -160 11 -58 80 -261 113 -330
48 -100 115 -211 174 -288 27 -34 46 -67 43 -71 -3 -5 0 -11 7 -13 8 -3 7 -6
-4 -10 -11 -5 -41 19 -97 75 -152 154 -264 314 -348 497 -24 52 -48 104 -53
115 -29 61 -83 265 -99 370 -46 307 -25 569 69 855 48 146 93 242 182 388 11
17 17 32 15 32 -13 0 -135 -204 -187 -313 -73 -152 -140 -350 -157 -462 -2
-16 -6 -36 -8 -43 -13 -37 -20 -167 -19 -347 0 -241 21 -380 89 -581 122 -366
331 -671 623 -905 42 -34 81 -65 85 -69 5 -4 -73 -7 -171 -8 -214 0 -373 -10
-387 -23 -14 -14 -14 -223 0 -311 16 -105 11 -165 -26 -288 -10 -36 -20 -92
-21 -125 l-3 -60 75 1 c65 0 121 5 245 19 168 19 372 22 785 10 162 -4 329 -9
370 -10 41 -1 190 -6 330 -10 140 -4 302 -8 360 -8 135 0 678 13 790 18 47 3
140 7 208 10 261 11 408 33 419 62 3 7 -8 81 -23 165 -37 201 -36 226 10 323
37 78 64 170 54 180 -3 4 -14 6 -24 6 -11 0 -194 0 -408 0 -215 0 -392 1 -394
3 -2 3 24 23 58 46 137 93 309 261 422 410 199 265 330 585 375 915 10 75 10
412 0 485 -20 143 -56 297 -94 399 -14 36 -28 75 -31 86 -19 68 -208 405 -227
405 -3 0 6 -19 21 -41 25 -40 106 -204 131 -265 30 -74 66 -199 88 -309 79
-399 29 -784 -151 -1152 -80 -162 -215 -356 -313 -449 -23 -21 -26 -22 -37 -6
-10 14 -9 22 10 47 80 108 167 286 215 441 34 110 37 121 52 209 6 33 21 98
34 145 14 47 27 103 31 125 3 22 8 43 10 46 6 10 17 170 18 249 2 641 -361
1215 -944 1494 -100 47 -211 91 -260 101 -8 2 -42 11 -75 19 -32 9 -80 19
-105 22 -25 3 -54 8 -65 11 -26 6 -340 11 -385 6z m889 -412 c199 -99 391
-262 540 -461 114 -152 242 -429 265 -575 4 -29 -2 -18 -24 40 -151 400 -445
725 -812 898 -43 20 -78 39 -78 42 0 10 40 85 46 85 3 0 31 -13 63 -29z
m-1402 -36 l23 -44 -22 -12 c-12 -7 -50 -27 -85 -45 -235 -122 -462 -340 -605
-579 -81 -135 -139 -275 -183 -445 -23 -85 -25 -89 -21 -40 9 92 50 278 75
335 5 11 19 45 31 75 47 118 163 311 240 400 135 157 263 261 475 387 34 20
49 14 72 -32z"/>
<path d="M4418 1045 c-2 -2 -46 -7 -98 -11 -52 -3 -105 -10 -117 -15 -40 -15
-40 -19 15 -330 10 -59 15 -115 11 -127 -4 -11 -84 -77 -178 -147 -94 -70
-171 -128 -171 -129 0 -6 467 -7 530 -1 30 3 87 12 125 20 39 8 103 17 144 20
98 8 160 20 174 34 8 8 -6 28 -54 75 -35 35 -104 104 -152 155 -49 50 -92 91
-97 91 -10 0 -19 35 -11 46 3 5 24 21 46 36 22 15 54 40 72 55 41 36 175 204
168 211 -3 3 -20 7 -38 9 -48 5 -365 11 -369 8z"/>
<path d="M415 993 c-16 -1 -59 -7 -95 -13 -36 -5 -99 -12 -140 -16 -41 -4 -86
-8 -100 -9 -14 -2 -37 -3 -52 -4 -16 -1 -28 -5 -28 -9 0 -22 174 -175 284
-251 l48 -33 -86 -87 c-98 -99 -114 -117 -215 -245 -27 -34 -37 -54 -28 -57 1
0 72 -2 157 -5 85 -2 184 -7 220 -10 227 -22 670 8 670 46 0 8 -29 22 -40 18
-3 -1 -16 4 -29 11 -44 24 -266 98 -359 121 -50 12 -93 26 -93 31 -1 5 -2 15
-3 22 -1 6 2 30 7 52 5 22 11 50 13 63 10 54 13 71 29 142 17 77 22 163 10
199 -3 11 -16 23 -28 27 -25 8 -97 12 -142 7z"/>
<path d="M3937 504 c-1 -1 -36 -5 -77 -9 -41 -4 -81 -13 -89 -20 -7 -7 -13
-32 -13 -56 1 -100 13 -109 89 -71 57 29 223 146 223 157 0 5 -128 3 -133 -1z"/>
<path d="M896 487 c-116 -11 -120 -18 -34 -57 79 -35 212 -80 241 -80 9 0 17
6 18 13 1 6 3 32 5 56 6 71 -6 82 -84 79 -37 -1 -103 -6 -146 -11z"/>
<path d="M1465 449 c-114 -11 -125 -28 -125 -208 0 -72 5 -141 11 -154 6 -13
25 -32 42 -43 31 -18 68 -19 1018 -19 1076 0 1024 -3 1055 57 10 19 14 65 14
158 0 146 -10 179 -62 201 -29 12 -1833 20 -1953 8z"/>
</g>
</svg>
